<svg width="8" height="8" viewBox="0 0 8 8" fill="none" xmlns="http://www.w3.org/2000/svg">
<path d="M4.95312 1.58594C5.72656 1.58594 6.35938 2.21875 6.35938 2.99219V4.39844C6.35938 5.17188 5.72656 5.80469 4.95312 5.80469H3.54688C2.77344 5.80469 2.14062 5.17188 2.14062 4.39844V2.99219C2.14062 2.21875 2.77344 1.58594 3.54688 1.58594H4.95312ZM4.95312 0.179688H3.54688C2 0.179688 0.734375 1.44531 0.734375 2.99219V4.39844C0.734375 5.94531 2 7.21094 3.54688 7.21094H4.95312C6.5 7.21094 7.76562 5.94531 7.76562 4.39844V2.99219C7.76562 1.44531 6.5 0.179688 4.95312 0.179688Z" fill="white"/>
</svg>
