<?xml version="1.0" encoding="UTF-8" standalone="no"?>
<svg
   xmlns:dc="http://purl.org/dc/elements/1.1/"
   xmlns:cc="http://creativecommons.org/ns#"
   xmlns:rdf="http://www.w3.org/1999/02/22-rdf-syntax-ns#"
   xmlns:svg="http://www.w3.org/2000/svg"
   xmlns="http://www.w3.org/2000/svg"
   xmlns:sodipodi="http://sodipodi.sourceforge.net/DTD/sodipodi-0.dtd"
   xmlns:inkscape="http://www.inkscape.org/namespaces/inkscape"
   width="32"
   height="27.97"
   viewBox="0 0 32 27.97"
   version="1.1"
   id="svg4559"
   sodipodi:docname="like_green.svg"
   inkscape:version="0.92.4 (5da689c313, 2019-01-14)">
  <metadata
     id="metadata4563">
    <rdf:RDF>
      <cc:Work
         rdf:about="">
        <dc:format>image/svg+xml</dc:format>
        <dc:type
           rdf:resource="http://purl.org/dc/dcmitype/StillImage" />
      </cc:Work>
    </rdf:RDF>
  </metadata>
  <sodipodi:namedview
     pagecolor="#ffffff"
     bordercolor="#666666"
     borderopacity="1"
     objecttolerance="10"
     gridtolerance="10"
     guidetolerance="10"
     inkscape:pageopacity="0"
     inkscape:pageshadow="2"
     inkscape:window-width="1920"
     inkscape:window-height="1017"
     id="namedview4561"
     showgrid="false"
     inkscape:zoom="8.4376119"
     inkscape:cx="16"
     inkscape:cy="13.985"
     inkscape:window-x="-8"
     inkscape:window-y="-8"
     inkscape:window-maximized="1"
     inkscape:current-layer="svg4559" />
  <defs
     id="defs4556">
    <style
       id="style4554">
      .cls-1 {
        fill: #adff63;
        fill-rule: evenodd;
      }
    </style>
  </defs>
  <path
     id="icon"
     class="cls-1"
     d="M980.2,1020.11a9.643,9.643,0,0,0-13.192-.29,9.643,9.643,0,0,0-13.192.29,9.391,9.391,0,0,0,0,13.39c1.069,1.06,11.053,10.93,11.053,10.93a3.046,3.046,0,0,0,4.278,0L980.2,1033.5A9.391,9.391,0,0,0,980.2,1020.11Zm-1.427,11.98-11.053,10.93a1.014,1.014,0,0,1-1.425,0l-11.052-10.93a7.418,7.418,0,0,1,0-10.57,7.6,7.6,0,0,1,10.409-.22l1.356,1.22,1.356-1.22a7.6,7.6,0,0,1,10.409.22A7.418,7.418,0,0,1,978.769,1032.09Zm-18.514-9.75s0,0.01,0,.01a4.245,4.245,0,0,0-4.246,4.24h0a0.5,0.5,0,0,0,1,0h0a3.254,3.254,0,0,1,3.249-3.25h0a0.5,0.5,0,0,0,.5-0.5A0.5,0.5,0,0,0,960.255,1022.34Z"
     transform="translate(-951 -1017.34)" />
</svg>
